<svg width="512" height="512" viewBox="0 0 512 512" fill="none" xmlns="http://www.w3.org/2000/svg" xmlns:xlink="http://www.w3.org/1999/xlink" class=""><rect id="«r39»" width="512" height="512" x="0" y="0" rx="128" fill="url(#«r3a»)" stroke="#FFFFFF" stroke-width="0" stroke-opacity="100%" paint-order="stroke"></rect><clipPath id="clip"><use xlink:href="#«r39»"></use></clipPath><defs><linearGradient id="«r3a»" gradientUnits="userSpaceOnUse" gradientTransform="rotate(135)" style="transform-origin: center center 0px;"><stop stop-color="#8E2DE2"></stop><stop offset="1" stop-color="#2563eb"></stop></linearGradient><radialGradient id="«r3b»" cx="0" cy="0" r="1" gradientUnits="userSpaceOnUse" gradientTransform="translate(256) rotate(90) scale(512)"><stop stop-color="white"></stop><stop offset="1" stop-color="white" stop-opacity="0"></stop></radialGradient></defs><svg xmlns="http://www.w3.org/2000/svg" fill="none" viewBox="0 0 16 16" width="352" height="352" x="80" y="80" style="color: rgb(255, 255, 255);" alignment-baseline="middle"><path stroke="currentColor" stroke-linecap="round" stroke-linejoin="round" stroke-width="1.5" d="M8.25 1.755V6.25a1 1 0 0 1-1 1h-1a1 1 0 0 0-1 1v1a1 1 0 0 1-1 1H2.167m8.566 3.372a6.25 6.25 0 1 1 3.392-4.372m-3.392 4.372-.233-.233a2.751 2.751 0 0 1 3.375-4.27l.25.131m-3.392 4.372a6.26 6.26 0 0 0 3.392-4.372"></path></svg></svg>